<svg width="24" height="25" viewBox="0 0 24 25" fill="none" xmlns="http://www.w3.org/2000/svg">
<path fill-rule="evenodd" clip-rule="evenodd" d="M12 3.1626C12.2968 3.1626 12.5782 3.29442 12.7682 3.52241L17.4684 9.1626H21C21.3079 9.1626 21.5987 9.30447 21.7882 9.54719C21.9777 9.7899 22.0448 10.1064 21.9702 10.4051L19.9795 18.3676C19.8509 19.1047 19.5182 19.801 18.9968 20.3224C18.4633 20.8559 17.7553 21.1778 16.989 21.1626H7.01106C6.24468 21.1778 5.53673 20.8559 5.00319 20.3224C4.48184 19.801 4.14909 19.1047 4.02048 18.3676L2.02987 10.4051C1.95518 10.1064 2.0223 9.7899 2.2118 9.54719C2.40131 9.30447 2.69207 9.1626 3.00001 9.1626H6.53163L11.2318 3.52241C11.4218 3.29442 11.7032 3.1626 12 3.1626ZM6.99238 11.1626C6.99711 11.1626 7.00184 11.1626 7.00656 11.1626H16.9935C16.9982 11.1626 17.0029 11.1626 17.0076 11.1626H19.7192L18.0299 17.9201C18.0231 17.947 18.0175 17.9742 18.0131 18.0016C17.9489 18.3946 17.7818 18.709 17.5826 18.9082C17.3886 19.1022 17.1892 19.167 17.0252 19.1629C17.0168 19.1627 17.0084 19.1626 17 19.1626H7.00001C6.99161 19.1626 6.98321 19.1627 6.97481 19.1629C6.81083 19.167 6.61145 19.1022 6.4174 18.9082C6.21824 18.709 6.05108 18.3946 5.98696 18.0016C5.98249 17.9742 5.97689 17.947 5.97015 17.9201L4.28079 11.1626H6.99238ZM14.865 9.1626H9.13505L12 5.72465L14.865 9.1626ZM9.87869 13.0413C10.4413 12.4787 11.2044 12.1626 12 12.1626C12.7957 12.1626 13.5587 12.4787 14.1213 13.0413C14.6839 13.6039 15 14.3669 15 15.1626C15 15.9582 14.6839 16.7213 14.1213 17.2839C13.5587 17.8465 12.7957 18.1626 12 18.1626C11.2044 18.1626 10.4413 17.8465 9.87869 17.2839C9.31608 16.7213 9.00001 15.9582 9.00001 15.1626C9.00001 14.3669 9.31608 13.6039 9.87869 13.0413ZM12 14.1626C11.7348 14.1626 11.4804 14.268 11.2929 14.4555C11.1054 14.643 11 14.8974 11 15.1626C11 15.4278 11.1054 15.6822 11.2929 15.8697C11.4804 16.0572 11.7348 16.1626 12 16.1626C12.2652 16.1626 12.5196 16.0572 12.7071 15.8697C12.8947 15.6822 13 15.4278 13 15.1626C13 14.8974 12.8947 14.643 12.7071 14.4555C12.5196 14.268 12.2652 14.1626 12 14.1626Z" fill="#E20C7B"/>
</svg>
