<svg width="24" height="25" viewBox="0 0 24 25" fill="none" xmlns="http://www.w3.org/2000/svg">
<path fill-rule="evenodd" clip-rule="evenodd" d="M5.29289 5.42815C5.68342 5.03762 6.31658 5.03762 6.70711 5.42815L12 10.721L17.2929 5.42815C17.6834 5.03762 18.3166 5.03762 18.7071 5.42815C19.0976 5.81867 19.0976 6.45184 18.7071 6.84236L13.4142 12.1353L18.7071 17.4281C19.0976 17.8187 19.0976 18.4518 18.7071 18.8424C18.3166 19.2329 17.6834 19.2329 17.2929 18.8424L12 13.5495L6.70711 18.8424C6.31658 19.2329 5.68342 19.2329 5.29289 18.8424C4.90237 18.4518 4.90237 17.8187 5.29289 17.4281L10.5858 12.1353L5.29289 6.84236C4.90237 6.45184 4.90237 5.81867 5.29289 5.42815Z" fill="#E20C7B"/>
</svg>
