<svg width="24" height="25" viewBox="0 0 24 25" fill="none" xmlns="http://www.w3.org/2000/svg">
<path fill-rule="evenodd" clip-rule="evenodd" d="M6.93853 2.77156C7.90914 2.36952 8.94943 2.1626 10 2.1626C11.0506 2.1626 12.0909 2.36952 13.0615 2.77156C14.0321 3.1736 14.914 3.76287 15.6569 4.50574C16.3997 5.24861 16.989 6.13053 17.391 7.10113C17.7931 8.07174 18 9.11202 18 10.1626C18 11.2132 17.7931 12.2535 17.391 13.2241C17.1172 13.8852 16.7565 14.5051 16.3196 15.068L21.7071 20.4555C22.0976 20.846 22.0976 21.4792 21.7071 21.8697C21.3166 22.2602 20.6834 22.2602 20.2929 21.8697L14.9054 16.4822C14.3425 16.9191 13.7226 17.2798 13.0615 17.5536C12.0909 17.9557 11.0506 18.1626 10 18.1626C8.94943 18.1626 7.90914 17.9557 6.93853 17.5536C5.96793 17.1516 5.08601 16.5623 4.34315 15.8195C3.60028 15.0766 3.011 14.1947 2.60896 13.2241C2.20693 12.2535 2 11.2132 2 10.1626C2 9.11202 2.20693 8.07174 2.60896 7.10113C3.011 6.13053 3.60028 5.24861 4.34315 4.50574C5.08601 3.76287 5.96793 3.1736 6.93853 2.77156ZM10 4.1626C9.21207 4.1626 8.43185 4.31779 7.7039 4.61932C6.97595 4.92085 6.31451 5.36281 5.75736 5.91996C5.20021 6.47711 4.75825 7.13854 4.45672 7.8665C4.15519 8.59445 4 9.37467 4 10.1626C4 10.9505 4.15519 11.7307 4.45672 12.4587C4.75825 13.1867 5.20021 13.8481 5.75736 14.4052C6.31451 14.9624 6.97595 15.4043 7.7039 15.7059C8.43185 16.0074 9.21207 16.1626 10 16.1626C10.7879 16.1626 11.5681 16.0074 12.2961 15.7059C13.0241 15.4043 13.6855 14.9624 14.2426 14.4052C14.7998 13.8481 15.2417 13.1867 15.5433 12.4587C15.8448 11.7307 16 10.9505 16 10.1626C16 9.37467 15.8448 8.59445 15.5433 7.8665C15.2417 7.13854 14.7998 6.47711 14.2426 5.91996C13.6855 5.36281 13.0241 4.92085 12.2961 4.61932C11.5681 4.31779 10.7879 4.1626 10 4.1626Z" fill="#E20C7B"/>
</svg>
